<?xml version="1.0" encoding="utf-8"?>
<!-- Generator: Adobe Illustrator 22.0.1, SVG Export Plug-In . SVG Version: 6.00 Build 0)  -->
<svg version="1.1"
	 id="svg14" inkscape:version="0.92.1 r15371" sodipodi:docname="default.svg" xmlns:cc="http://creativecommons.org/ns#" xmlns:dc="http://purl.org/dc/elements/1.1/" xmlns:inkscape="http://www.inkscape.org/namespaces/inkscape" xmlns:rdf="http://www.w3.org/1999/02/22-rdf-syntax-ns#" xmlns:sodipodi="http://sodipodi.sourceforge.net/DTD/sodipodi-0.dtd" xmlns:svg="http://www.w3.org/2000/svg"
	 xmlns="http://www.w3.org/2000/svg" xmlns:xlink="http://www.w3.org/1999/xlink" x="0px" y="0px" viewBox="0 0 32 32"
	 style="enable-background:new 0 0 32 32;" xml:space="preserve">
<style type="text/css">
	.st0{fill:none;stroke:#000000;stroke-width:2;}
	.st1{fill:#FFFFFF;}
</style>
<sodipodi:namedview  bordercolor="#666666" borderopacity="1" gridtolerance="10" guidetolerance="10" id="namedview16" inkscape:current-layer="g12" inkscape:cx="16" inkscape:cy="16" inkscape:pageopacity="0" inkscape:pageshadow="2" inkscape:window-height="1406" inkscape:window-maximized="1" inkscape:window-width="2560" inkscape:window-x="-11" inkscape:window-y="-11" inkscape:zoom="7.375" objecttolerance="10" pagecolor="#ffffff" showgrid="false">
	</sodipodi:namedview>
<circle class="st0" cx="6.9" cy="19.7" r="5.1"/>
<path d="M13.7,7.2c-4.2,0-3.5-0.4-5.7,6.8c-1.8,5.8-1.6,5.2-1.6,5.6c0,0.3,0.2,0.6,0.6,0.6c0.7-0.1,0.4,0.1,2.7-7.1
	c8.4,8.9,5.3,7.5,9.8,7.6c6-0.1,6.5,0.3,6.5-0.6c0-0.3-0.1-0.5-4.2-9.6l0.4-1.1l1.3,0l0-1.1h-5C17.9,9,18.5,9,20.8,9.5l-0.4,1.1
	l-10,0c0.7-2.4,0.3-2.2,3.3-2.2L13.7,7.2z"/>
<polygon class="st1" points="10,11.8 19.9,11.8 17,19.4 "/>
<polygon class="st1" points="21,12.2 18.3,19.6 24.4,19.6 "/>
<circle class="st0" cx="25.1" cy="19.6" r="5.1"/>
</svg>
