<svg enable-background="new 0 0 32 32" version="1.1" viewBox="0 0 32 32" xml:space="preserve" xmlns="http://www.w3.org/2000/svg">
<style type="text/css">
	.st0{fill:none;stroke:#000000;stroke-width:2;}
	.st1{fill:#FFFFFF;}
</style>
<circle class="st0" cx="6.9" cy="19.7" r="5.1" fill-opacity="0"/>
<path d="m13.7 7.2c-4.2 0-3.5-0.4-5.7 6.8-1.8 5.8-1.6 5.2-1.6 5.6 0 0.3 0.2 0.6 0.6 0.6 0.7-0.1 0.4 0.1 2.7-7.1 8.4 8.9 5.3 7.5 9.8 7.6 6-0.1 6.5 0.3 6.5-0.6 0-0.3-0.1-0.5-4.2-9.6l0.4-1.1h1.3v-1.1h-5c-0.6 0.7 0 0.7 2.3 1.2l-0.4 1.1h-10c0.7-2.4 0.3-2.2 3.3-2.2v-1.2z"/>
<polygon class="st1" points="10 11.8 19.9 11.8 17 19.4"/>
<polygon class="st1" points="21 12.2 18.3 19.6 24.4 19.6"/>
<circle class="st0" cx="25.1" cy="19.6" r="5.1" fill-opacity="0" stroke="#000"/>
</svg>
