<svg width="16" height="16" enable-background="new 0 0 20 20" version="1.1" viewBox="0 0 16 16" xml:space="preserve" xmlns="http://www.w3.org/2000/svg" xmlns:xlink="http://www.w3.org/1999/xlink"><defs><rect id="g" width="20" height="20"/></defs><clipPath id="h"><use width="100%" height="100%" overflow="visible" xlink:href="#g"/></clipPath><rect transform="matrix(.94118 0 0 .94118 -1.4118 -1.4118)" x="6.5" y="9.5" width="12" height="9" clip-path="url(#h)"/><g transform="matrix(.94118 0 0 .94118 -1.4118 -1.4118)"><defs><rect id="i" width="20" height="20"/></defs><clipPath id="j"><use width="100%" height="100%" overflow="visible" xlink:href="#i"/></clipPath><polygon points="4 14.5 4 5.5 16 5.5 16 9 6 9 6 14.5" clip-path="url(#j)"/></g><g transform="matrix(.94118 0 0 .94118 -1.4118 -1.4118)"><defs><rect id="k" width="20" height="20"/></defs><clipPath id="l"><use width="100%" height="100%" overflow="visible" xlink:href="#k"/></clipPath><polygon points="1.5 10.5 1.5 1.5 13.5 1.5 13.5 5 3.5 5 3.5 10.5" clip-path="url(#l)"/></g></svg>
