<svg width="16" height="16" enable-background="new 0 0 20 20" version="1.1" viewBox="0 0 16 16" xml:space="preserve" xmlns="http://www.w3.org/2000/svg" xmlns:xlink="http://www.w3.org/1999/xlink"><defs><rect id="ai" width="20" height="20"/></defs><clipPath id="ao"><use width="100%" height="100%" overflow="visible" xlink:href="#ai"/></clipPath><rect transform="matrix(1.0226 0 0 .99888 -2.2213 -1.8368)" x="7.468" y="5.145" width="8.884" height="1.625" clip-path="url(#ao)" fill="#8f8f8f"/><g transform="matrix(1.0226 0 0 .99888 -2.2213 -1.8368)" stroke="#000"><defs><rect id="ap" width="20" height="20"/></defs><clipPath id="aq"><use width="100%" height="100%" overflow="visible" xlink:href="#ap"/></clipPath><rect x="7.468" y="5.145" width="8.884" height="1.625" clip-path="url(#aq)" stroke="#000" stroke-miterlimit="10"/></g><defs><rect id="ar" width="20" height="20"/></defs><clipPath id="as"><use width="100%" height="100%" overflow="visible" xlink:href="#ar"/></clipPath><rect transform="matrix(1.0226 0 0 .99888 -2.2213 -1.8368)" x="3.667" y="5.145" width="1.625" height="1.625" clip-path="url(#as)" fill="#8f8f8f"/><g transform="matrix(1.0226 0 0 .99888 -2.2213 -1.8368)" stroke="#000"><defs><rect id="at" width="20" height="20"/></defs><clipPath id="au"><use width="100%" height="100%" overflow="visible" xlink:href="#at"/></clipPath><rect x="3.667" y="5.145" width="1.625" height="1.625" clip-path="url(#au)" stroke="#000" stroke-miterlimit="10"/></g><defs><rect id="av" width="20" height="20"/></defs><clipPath id="y"><use width="100%" height="100%" overflow="visible" xlink:href="#av"/></clipPath><rect transform="matrix(1.0226 0 0 .99888 -2.2213 -1.8368)" x="7.45" y="9.187" width="8.883" height="1.625" clip-path="url(#y)" fill="#8f8f8f"/><defs><rect id="z" width="20" height="20"/></defs><clipPath id="aa"><use width="100%" height="100%" overflow="visible" xlink:href="#z"/></clipPath><rect transform="matrix(1.0226 0 0 .99888 -2.2213 -1.8368)" x="7.45" y="9.187" width="8.883" height="1.625" clip-path="url(#aa)" stroke="#000" stroke-miterlimit="10"/><defs><rect id="ab" width="20" height="20"/></defs><clipPath id="ac"><use width="100%" height="100%" overflow="visible" xlink:href="#ab"/></clipPath><rect transform="matrix(1.0226 0 0 .99888 -2.2213 -1.8368)" x="3.65" y="9.187" width="1.625" height="1.625" clip-path="url(#ac)" fill="#8f8f8f"/><g transform="matrix(1.0226 0 0 .99888 -2.2213 -1.8368)" stroke="#000"><defs><rect id="ad" width="20" height="20"/></defs><clipPath id="ae"><use width="100%" height="100%" overflow="visible" xlink:href="#ad"/></clipPath><rect x="3.65" y="9.187" width="1.625" height="1.625" clip-path="url(#ae)" stroke="#000" stroke-miterlimit="10"/></g><defs><rect id="af" width="20" height="20"/></defs><clipPath id="ag"><use width="100%" height="100%" overflow="visible" xlink:href="#af"/></clipPath><rect transform="matrix(1.0226 0 0 .99888 -2.2213 -1.8368)" x="7.458" y="13.229" width="8.884" height="1.625" clip-path="url(#ag)" fill="#8f8f8f"/><g transform="matrix(1.0226 0 0 .99888 -2.2213 -1.8368)" stroke="#000"><defs><rect id="ah" width="20" height="20"/></defs><clipPath id="aj"><use width="100%" height="100%" overflow="visible" xlink:href="#ah"/></clipPath><rect x="7.458" y="13.229" width="8.884" height="1.625" clip-path="url(#aj)" stroke="#000" stroke-miterlimit="10"/></g><defs><rect id="ak" width="20" height="20"/></defs><clipPath id="al"><use width="100%" height="100%" overflow="visible" xlink:href="#ak"/></clipPath><rect transform="matrix(1.0226 0 0 .99888 -2.2213 -1.8368)" x="3.658" y="13.229" width="1.625" height="1.625" clip-path="url(#al)" fill="#8f8f8f"/><g transform="matrix(1.0226 0 0 .99888 -2.2213 -1.8368)" stroke="#000"><defs><rect id="am" width="20" height="20"/></defs><clipPath id="an"><use width="100%" height="100%" overflow="visible" xlink:href="#am"/></clipPath><rect x="3.658" y="13.229" width="1.625" height="1.625" clip-path="url(#an)" stroke="#000" stroke-miterlimit="10"/></g></svg>
