<svg enable-background="new 0 0 32 32" version="1.1" viewBox="0 0 32 32" xml:space="preserve" xmlns="http://www.w3.org/2000/svg">
<circle cx="6.9" cy="19.7" r="5.1" fill-opacity="0" stroke="#000"/>
<path d="m12.34 7.1973c-2.7098 0.021875-2.4148 0.50273-4.3398 6.8027-1.8 5.8-1.5996 5.1996-1.5996 5.5996 0 0.3 0.19961 0.59961 0.59961 0.59961 0.7-0.1 0.39922 0.10039 2.6992-7.0996 8.4 8.9 5.3008 7.4996 9.8008 7.5996 6-0.1 6.5 0.30039 6.5-0.59961 0-0.3-0.099219-0.49961-4.1992-9.5996l0.39844-1.0996h1.3008v-1.0996h-5c-0.6 0.7 7.81e-4 0.69922 2.3008 1.1992l-0.40039 1.0996h-10c0.7-2.4 0.29883-2.1992 3.2988-2.1992v-1.2012c-0.525 0-0.97227-0.00508-1.3594-0.00195zm-0.90473 5.0483 8.4344-0.08475-2.6791 6.5188zm9.6634 0.9764 2.6428 5.8001-4.9193-0.01695z" stroke-opacity="0"/>
<circle cx="25.1" cy="19.6" r="5.1" fill-opacity="0" stroke="#000"/>
</svg>
