<?xml version="1.0" encoding="utf-8"?>
<!-- Generator: Adobe Illustrator 15.0.2, SVG Export Plug-In . SVG Version: 6.00 Build 0)  -->
<!DOCTYPE svg PUBLIC "-//W3C//DTD SVG 1.1//EN" "http://www.w3.org/Graphics/SVG/1.1/DTD/svg11.dtd">
<svg version="1.1" id="Ebene_1" xmlns="http://www.w3.org/2000/svg" xmlns:xlink="http://www.w3.org/1999/xlink" x="0px" y="0px"
	 width="280px" height="280px" viewBox="0 0 280 280" enable-background="new 0 0 280 280" xml:space="preserve">
<g>
	<g>
		<defs>
			<rect id="SVGID_1_" y="20" width="20" height="20"/>
		</defs>
		<clipPath id="SVGID_2_">
			<use xlink:href="#SVGID_1_"  overflow="visible"/>
		</clipPath>
		<rect x="6.5" y="29.5" clip-path="url(#SVGID_2_)" fill="#999999" width="12" height="9"/>
		<polygon clip-path="url(#SVGID_2_)" fill="#999999" points="6,29 6,34.5 4,34.5 4,25.5 16,25.5 16,29 		"/>
		<polygon clip-path="url(#SVGID_2_)" fill="#999999" points="3.5,25 3.5,30.5 1.5,30.5 1.5,21.5 13.5,21.5 13.5,25 		"/>
	</g>
</g>
<g>
	<g>
		<defs>
			<rect id="SVGID_3_" x="20" width="20" height="20"/>
		</defs>
		<clipPath id="SVGID_4_">
			<use xlink:href="#SVGID_3_"  overflow="visible"/>
		</clipPath>
		<rect x="27.468" y="5.145" clip-path="url(#SVGID_4_)" fill="#8F8F8F" width="8.883" height="1.625"/>
		
			<rect x="27.468" y="5.145" clip-path="url(#SVGID_4_)" fill="none" stroke="#8F8F8F" stroke-miterlimit="10" width="8.883" height="1.625"/>
		<rect x="23.667" y="5.145" clip-path="url(#SVGID_4_)" fill="#8F8F8F" width="1.625" height="1.625"/>
		
			<rect x="23.667" y="5.145" clip-path="url(#SVGID_4_)" fill="none" stroke="#8F8F8F" stroke-miterlimit="10" width="1.625" height="1.625"/>
		<rect x="27.45" y="9.187" clip-path="url(#SVGID_4_)" fill="#8F8F8F" width="8.883" height="1.625"/>
		
			<rect x="27.45" y="9.187" clip-path="url(#SVGID_4_)" fill="none" stroke="#8F8F8F" stroke-miterlimit="10" width="8.883" height="1.625"/>
		<rect x="23.65" y="9.187" clip-path="url(#SVGID_4_)" fill="#8F8F8F" width="1.625" height="1.625"/>
		
			<rect x="23.65" y="9.187" clip-path="url(#SVGID_4_)" fill="none" stroke="#8F8F8F" stroke-miterlimit="10" width="1.625" height="1.625"/>
		<rect x="27.458" y="13.229" clip-path="url(#SVGID_4_)" fill="#8F8F8F" width="8.884" height="1.625"/>
		
			<rect x="27.458" y="13.229" clip-path="url(#SVGID_4_)" fill="none" stroke="#8F8F8F" stroke-miterlimit="10" width="8.884" height="1.625"/>
		<rect x="23.658" y="13.229" clip-path="url(#SVGID_4_)" fill="#8F8F8F" width="1.625" height="1.625"/>
		
			<rect x="23.658" y="13.229" clip-path="url(#SVGID_4_)" fill="none" stroke="#8F8F8F" stroke-miterlimit="10" width="1.625" height="1.625"/>
	</g>
</g>
<g>
	<g>
		<defs>
			<rect id="SVGID_5_" x="20" y="20" width="20" height="20"/>
		</defs>
		<clipPath id="SVGID_6_">
			<use xlink:href="#SVGID_5_"  overflow="visible"/>
		</clipPath>
		<g clip-path="url(#SVGID_6_)">
			<defs>
				<rect id="SVGID_7_" x="20" y="20" width="20" height="20"/>
			</defs>
			<clipPath id="SVGID_8_">
				<use xlink:href="#SVGID_7_"  overflow="visible"/>
			</clipPath>
			<path clip-path="url(#SVGID_8_)" fill="#9A9999" d="M33.667,30.707c0,0-3.307,7.127-3.667,7.127
				c-0.359,0-3.666-7.127-3.666-7.127v-8.541h7.333V30.707z"/>
		</g>
	</g>
</g>
</svg>
