<?xml version="1.0" encoding="utf-8"?><svg width="32" height="32" viewBox="0 0 32 32" xmlns="http://www.w3.org/2000/svg" xmlns:xlink="http://www.w3.org/1999/xlink"><svg width="16" height="16" enable-background="new 0 0 20 20" version="1.1" viewBox="0 0 16 16" xml:space="preserve" id="categories" xmlns="http://www.w3.org/2000/svg"><defs><rect id="ag" width="20" height="20"/></defs><clipPath id="ah"><use width="100%" height="100%" overflow="visible" xlink:href="#ag"/></clipPath><rect transform="matrix(.94118 0 0 .94118 -1.4118 -1.4118)" x="6.5" y="9.5" width="12" height="9" clip-path="url(#ah)"/><g transform="matrix(.94118 0 0 .94118 -1.4118 -1.4118)"><defs><rect id="ai" width="20" height="20"/></defs><clipPath id="aj"><use width="100%" height="100%" overflow="visible" xlink:href="#ai"/></clipPath><polygon points="4 14.5 4 5.5 16 5.5 16 9 6 9 6 14.5" clip-path="url(#aj)"/></g><g transform="matrix(.94118 0 0 .94118 -1.4118 -1.4118)"><defs><rect id="ak" width="20" height="20"/></defs><clipPath id="al"><use width="100%" height="100%" overflow="visible" xlink:href="#ak"/></clipPath><polygon points="1.5 10.5 1.5 1.5 13.5 1.5 13.5 5 3.5 5 3.5 10.5" clip-path="url(#al)"/></g></svg><svg width="16" height="16" enable-background="new 0 0 20 20" version="1.1" viewBox="0 0 16 16" xml:space="preserve" id="items" x="16" xmlns="http://www.w3.org/2000/svg"><defs><rect id="bai" width="20" height="20"/></defs><clipPath id="bao"><use width="100%" height="100%" overflow="visible" xlink:href="#bai"/></clipPath><rect transform="matrix(1.0226 0 0 .99888 -2.2213 -1.8368)" x="7.468" y="5.145" width="8.884" height="1.625" clip-path="url(#bao)" fill="#8f8f8f"/><g transform="matrix(1.0226 0 0 .99888 -2.2213 -1.8368)" stroke="#000"><defs><rect id="bap" width="20" height="20"/></defs><clipPath id="baq"><use width="100%" height="100%" overflow="visible" xlink:href="#bap"/></clipPath><rect x="7.468" y="5.145" width="8.884" height="1.625" clip-path="url(#baq)" stroke="#000" stroke-miterlimit="10"/></g><defs><rect id="bar" width="20" height="20"/></defs><clipPath id="bas"><use width="100%" height="100%" overflow="visible" xlink:href="#bar"/></clipPath><rect transform="matrix(1.0226 0 0 .99888 -2.2213 -1.8368)" x="3.667" y="5.145" width="1.625" height="1.625" clip-path="url(#bas)" fill="#8f8f8f"/><g transform="matrix(1.0226 0 0 .99888 -2.2213 -1.8368)" stroke="#000"><defs><rect id="bat" width="20" height="20"/></defs><clipPath id="bau"><use width="100%" height="100%" overflow="visible" xlink:href="#bat"/></clipPath><rect x="3.667" y="5.145" width="1.625" height="1.625" clip-path="url(#bau)" stroke="#000" stroke-miterlimit="10"/></g><defs><rect id="bav" width="20" height="20"/></defs><clipPath id="by"><use width="100%" height="100%" overflow="visible" xlink:href="#bav"/></clipPath><rect transform="matrix(1.0226 0 0 .99888 -2.2213 -1.8368)" x="7.45" y="9.187" width="8.883" height="1.625" clip-path="url(#by)" fill="#8f8f8f"/><defs><rect id="bz" width="20" height="20"/></defs><clipPath id="baa"><use width="100%" height="100%" overflow="visible" xlink:href="#bz"/></clipPath><rect transform="matrix(1.0226 0 0 .99888 -2.2213 -1.8368)" x="7.45" y="9.187" width="8.883" height="1.625" clip-path="url(#baa)" stroke="#000" stroke-miterlimit="10"/><defs><rect id="bab" width="20" height="20"/></defs><clipPath id="bac"><use width="100%" height="100%" overflow="visible" xlink:href="#bab"/></clipPath><rect transform="matrix(1.0226 0 0 .99888 -2.2213 -1.8368)" x="3.65" y="9.187" width="1.625" height="1.625" clip-path="url(#bac)" fill="#8f8f8f"/><g transform="matrix(1.0226 0 0 .99888 -2.2213 -1.8368)" stroke="#000"><defs><rect id="bad" width="20" height="20"/></defs><clipPath id="bae"><use width="100%" height="100%" overflow="visible" xlink:href="#bad"/></clipPath><rect x="3.65" y="9.187" width="1.625" height="1.625" clip-path="url(#bae)" stroke="#000" stroke-miterlimit="10"/></g><defs><rect id="baf" width="20" height="20"/></defs><clipPath id="bag"><use width="100%" height="100%" overflow="visible" xlink:href="#baf"/></clipPath><rect transform="matrix(1.0226 0 0 .99888 -2.2213 -1.8368)" x="7.458" y="13.229" width="8.884" height="1.625" clip-path="url(#bag)" fill="#8f8f8f"/><g transform="matrix(1.0226 0 0 .99888 -2.2213 -1.8368)" stroke="#000"><defs><rect id="bah" width="20" height="20"/></defs><clipPath id="baj"><use width="100%" height="100%" overflow="visible" xlink:href="#bah"/></clipPath><rect x="7.458" y="13.229" width="8.884" height="1.625" clip-path="url(#baj)" stroke="#000" stroke-miterlimit="10"/></g><defs><rect id="bak" width="20" height="20"/></defs><clipPath id="bal"><use width="100%" height="100%" overflow="visible" xlink:href="#bak"/></clipPath><rect transform="matrix(1.0226 0 0 .99888 -2.2213 -1.8368)" x="3.658" y="13.229" width="1.625" height="1.625" clip-path="url(#bal)" fill="#8f8f8f"/><g transform="matrix(1.0226 0 0 .99888 -2.2213 -1.8368)" stroke="#000"><defs><rect id="bam" width="20" height="20"/></defs><clipPath id="ban"><use width="100%" height="100%" overflow="visible" xlink:href="#bam"/></clipPath><rect x="3.658" y="13.229" width="1.625" height="1.625" clip-path="url(#ban)" stroke="#000" stroke-miterlimit="10"/></g></svg><svg width="16" height="16" enable-background="new 0 0 20 20" version="1.1" viewBox="0 0 16 16" xml:space="preserve" id="places" y="16" xmlns="http://www.w3.org/2000/svg"><g transform="matrix(1.0228 0 0 1.0212 -2.2282 -2.2119)"><defs><rect id="ce" width="20" height="20"/></defs><clipPath id="cf"><use width="100%" height="100%" overflow="visible" xlink:href="#ce"/></clipPath><g clip-path="url(#cf)"><defs><rect id="cg" width="20" height="20"/></defs><clipPath id="ch"><use width="100%" height="100%" overflow="visible" xlink:href="#cg"/></clipPath><path d="m13.667 10.707s-3.307 7.127-3.667 7.127c-0.359 0-3.666-7.127-3.666-7.127v-8.541h7.333z" clip-path="url(#ch)"/></g></g></svg><svg width="16" height="16" enable-background="new 0 0 20 20" version="1.1" viewBox="0 0 16 16" xml:space="preserve" id="plus" x="16" y="16" xmlns="http://www.w3.org/2000/svg"><rect x="7.1" y="2.5" width="1.8" height="11"/><rect x="2.5" y="7.1" width="11" height="1.801"/></svg></svg>